<?xml version="1.0" standalone="no"?>
<!DOCTYPE svg PUBLIC "-//W3C//DTD SVG 20010904//EN"
 "http://www.w3.org/TR/2001/REC-SVG-20010904/DTD/svg10.dtd">
<svg version="1.0" xmlns="http://www.w3.org/2000/svg"
 width="700.000000pt" height="700.000000pt" viewBox="0 0 700.000000 700.000000"
 preserveAspectRatio="xMidYMid meet">
<metadata>
Created by potrace 1.11, written by Peter Selinger 2001-2013
</metadata>
<g transform="translate(0.000000,700.000000) scale(0.100000,-0.100000)"
fill="#000000" stroke="none">
<path d="M3119 6646 c-2 -2 -40 -7 -84 -10 -146 -13 -176 -17 -287 -37 -32 -5
-70 -12 -85 -15 -84 -14 -295 -72 -422 -116 -356 -123 -694 -309 -995 -548
-10 -8 -58 -49 -105 -90 -559 -489 -931 -1128 -1075 -1850 -14 -69 -28 -145
-31 -170 -3 -25 -7 -63 -10 -85 -28 -212 -27 -612 1 -815 5 -36 40 -244 49
-291 13 -69 60 -236 99 -355 175 -522 487 -1004 896 -1380 194 -178 318 -270
545 -408 436 -265 924 -421 1440 -463 167 -14 560 -7 665 11 14 3 48 7 75 11
404 48 927 238 1294 471 92 58 311 218 373 272 148 128 264 244 406 406 55 61
191 245 247 331 112 175 252 446 305 590 36 99 100 289 105 310 2 11 9 36 15
55 5 19 13 49 16 65 3 17 14 68 24 115 25 116 44 240 57 390 10 109 10 481 0
585 -14 147 -45 340 -73 455 -168 694 -529 1292 -1054 1750 -41 36 -77 68 -80
71 -22 27 -399 289 -415 289 -2 0 -28 14 -57 31 -331 197 -815 356 -1232 405
-33 4 -73 9 -90 11 -40 5 -512 13 -517 9z m481 -361 c97 -8 198 -23 345 -51
269 -50 681 -216 943 -380 56 -35 245 -166 265 -183 4 -4 -25 -42 -65 -86
-427 -460 -727 -1057 -834 -1662 -2 -13 -6 -35 -9 -50 -15 -89 -33 -241 -36
-322 l-3 -51 -353 0 -353 0 0 1393 c0 767 3 1397 6 1400 4 4 10 5 13 3 3 -2
40 -7 81 -11z m-450 -1390 l0 -1395 -352 2 -353 3 -1 25 c-21 438 -160 928
-381 1350 -36 69 -72 132 -79 141 -8 8 -14 19 -14 23 0 12 -159 244 -224 326
-62 79 -181 216 -228 263 l-29 28 28 22 c107 87 314 218 468 295 292 147 493
212 885 287 14 3 54 8 90 11 36 3 66 6 67 7 1 1 29 3 62 5 l61 3 0 -1396z
m-1705 291 c75 -94 205 -278 205 -291 0 -4 10 -21 23 -38 37 -53 133 -239 184
-357 8 -19 19 -44 24 -55 68 -152 160 -492 185 -680 3 -27 8 -59 10 -70 2 -11
6 -54 10 -95 3 -41 7 -81 9 -88 4 -10 -172 -12 -868 -10 -574 2 -871 6 -870
13 0 6 4 44 7 85 4 41 8 89 11 105 22 144 38 236 47 270 5 22 11 47 13 55 13
66 94 320 108 338 5 6 6 12 1 12 -4 0 -3 5 4 12 7 7 12 18 12 25 0 40 177 383
275 533 44 67 193 268 219 296 6 6 47 51 91 99 l79 88 74 -79 c41 -43 107
-119 147 -168z m4121 93 c91 -103 304 -396 304 -418 0 -4 8 -19 19 -32 22 -30
93 -164 148 -284 61 -134 137 -347 168 -475 23 -93 44 -193 49 -225 3 -22 7
-49 10 -60 2 -11 7 -49 11 -85 4 -36 9 -72 10 -81 2 -9 5 -38 6 -65 l3 -49
-869 0 c-577 0 -869 3 -868 10 1 6 4 44 7 85 3 41 8 84 10 95 2 11 7 43 10 70
41 308 169 688 333 988 115 212 298 462 452 620 l56 58 55 -59 c30 -32 69 -74
86 -93z m-3473 -2144 c0 -5 -4 -41 -7 -80 -47 -562 -276 -1133 -635 -1583 -43
-54 -111 -132 -151 -176 l-75 -78 -69 73 c-451 482 -734 1110 -792 1759 -7 82
-7 82 -5 93 0 4 391 6 869 5 571 -2 866 -6 865 -13z m1055 -1382 c-2 -1045 -6
-1397 -14 -1396 -7 1 -43 5 -80 8 -127 10 -158 15 -288 41 -369 72 -692 198
-1002 390 -79 48 -244 163 -271 188 -2 1 12 18 30 38 106 116 136 150 186 213
31 39 61 75 67 82 27 28 176 257 234 358 52 90 143 271 180 360 4 11 16 37 25
58 49 113 157 479 171 584 3 26 8 51 10 54 2 4 6 28 9 55 3 27 8 56 10 64 4
13 12 80 21 165 1 17 4 54 5 83 l2 52 354 0 353 0 -2 -1397z m1059 1385 c0
-22 14 -192 18 -223 7 -52 18 -130 21 -140 1 -5 5 -28 9 -50 4 -22 11 -60 17
-85 5 -25 12 -56 15 -70 48 -254 216 -670 381 -945 74 -124 221 -337 252 -365
3 -3 25 -30 50 -60 24 -30 63 -75 85 -98 96 -104 105 -116 98 -122 -85 -71
-332 -228 -478 -304 -256 -131 -579 -239 -842 -281 -18 -3 -48 -8 -65 -11 -39
-6 -89 -12 -177 -19 -35 -4 -69 -7 -75 -8 -8 -1 -12 384 -14 1396 l-2 1397
353 0 c276 0 354 -3 354 -12z m2086 -3 c0 -5 -4 -41 -7 -80 -29 -373 -165
-824 -343 -1138 -18 -33 -33 -61 -33 -64 0 -4 -21 -37 -99 -158 -84 -129 -227
-311 -331 -418 l-56 -58 -64 68 c-81 87 -119 130 -145 164 -11 15 -45 60 -75
100 -338 449 -552 1029 -582 1579 0 3 0 8 1 13 0 4 391 6 869 5 571 -2 866 -6
865 -13z"/>
</g>
</svg>
